<?xml version="1.0" standalone="no"?>
<!DOCTYPE svg PUBLIC "-//W3C//DTD SVG 20010904//EN"
 "http://www.w3.org/TR/2001/REC-SVG-20010904/DTD/svg10.dtd">
<svg version="1.0" xmlns="http://www.w3.org/2000/svg"
 width="588.000000pt" height="480.000000pt" viewBox="0 0 588.000000 480.000000"
 preserveAspectRatio="xMidYMid meet">

<g transform="translate(0.000000,480.000000) scale(0.100000,-0.100000)"
fill="#000000" stroke="none">
<path d="M1350 3644 l-245 -155 -5 -301 -5 -301 -132 -79 -132 -79 -31 23
c-88 64 -208 -16 -180 -121 18 -68 79 -101 145 -79 53 18 80 58 78 113 l-1 44
139 86 c121 74 143 84 161 74 11 -6 113 -69 226 -140 261 -165 233 -153 270
-125 33 24 34 44 1 23 -10 -6 -20 -9 -23 -6 -3 3 -6 125 -6 272 -1 255 0 267
20 287 11 11 20 17 20 14 0 -4 7 -1 15 6 25 20 10 22 -28 4 l-36 -17 -230 144
c-127 79 -231 147 -231 151 0 4 104 72 232 151 223 140 232 145 255 130 20
-13 23 -13 23 -1 0 12 -43 41 -53 37 -1 0 -112 -70 -247 -155z m18 -337 l222
-138 0 -275 c0 -151 -3 -274 -6 -274 -9 0 -424 261 -430 271 -2 4 43 36 101
71 58 34 105 68 105 75 0 6 -48 -18 -106 -54 -59 -35 -113 -67 -120 -70 -12
-4 -14 43 -14 272 0 218 3 275 13 269 6 -4 112 -70 235 -147z m-581 -589 c51
-48 15 -138 -56 -138 -47 0 -81 32 -81 79 0 72 84 109 137 59z"/>
<path d="M706 2684 c-9 -8 -16 -19 -16 -24 0 -11 29 -40 40 -40 11 0 40 29 40
40 0 11 -29 40 -40 40 -5 0 -16 -7 -24 -16z"/>
<path d="M1348 2102 l-248 -156 0 -295 0 -296 252 -157 251 -157 28 16 c15 9
26 20 23 24 -2 4 2 10 8 12 9 4 10 6 1 6 -6 1 -15 -3 -18 -9 -3 -5 -13 -10
-21 -10 -21 0 -21 534 0 556 8 8 20 14 26 14 6 0 9 4 5 10 -4 6 -15 5 -30 -2
-22 -10 -46 3 -255 133 -126 79 -230 147 -230 151 0 4 104 72 231 151 l232
145 33 -20 c24 -14 33 -16 29 -6 -5 12 -57 50 -67 47 -1 0 -114 -71 -250 -157z
m20 -335 l222 -138 0 -275 c0 -151 -3 -274 -6 -274 -4 0 -109 64 -235 143
l-228 142 -1 278 c0 220 3 277 13 271 6 -4 112 -70 235 -147z"/>
</g>
</svg>
