<svg fill="#4bd28d" width="168px" height="168px" viewBox="-7 0 32 32" version="1.1" xmlns="http://www.w3.org/2000/svg" stroke="#4bd28d"><g id="SVGRepo_bgCarrier" stroke-width="0"></g><g id="SVGRepo_tracerCarrier" stroke-linecap="round" stroke-linejoin="round" stroke="#8beaac" stroke-width="6.4"> <title>play</title> <path d="M0 6.688v18.906c0 0.344 0.156 0.625 0.469 0.813 0.125 0.094 0.344 0.125 0.5 0.125s0.281-0.031 0.438-0.125l16.375-9.438c0.313-0.219 0.5-0.5 0.5-0.844 0-0.313-0.188-0.594-0.5-0.813l-16.375-9.438c-0.563-0.406-1.406 0.094-1.406 0.813z"></path> </g><g id="SVGRepo_iconCarrier"> <title>play</title> <path d="M0 6.688v18.906c0 0.344 0.156 0.625 0.469 0.813 0.125 0.094 0.344 0.125 0.5 0.125s0.281-0.031 0.438-0.125l16.375-9.438c0.313-0.219 0.5-0.5 0.5-0.844 0-0.313-0.188-0.594-0.5-0.813l-16.375-9.438c-0.563-0.406-1.406 0.094-1.406 0.813z"></path> </g></svg>